<?xml version="1.0" encoding="UTF-8"?>
<svg id="Layer_1" data-name="Layer 1" xmlns="http://www.w3.org/2000/svg" viewBox="0 0 543.87 512.03">
  <defs>
    <style>
      .cls-1 {
        fill: #fff;
      }
    </style>
  </defs>
  <path class="cls-1" d="m307.3,367.13c27.3-3.9,51.9-19.4,67.2-42.9l161.7-250.1c12.6-19.5,9.4-45.3-7.6-61.2s-42.9-17.3-61.5-3.3l-236.7,177.6c-24,18-38.2,46.1-38.4,76.1l115.3,103.8Zm-19.6,25.4l-116-104.4c-59.8,2.2-107.7,51.5-107.7,111.9,0,3.9.2,7.8.6,11.6,1.8,17.5-10.2,36.4-27.8,36.4h-4.8c-17.7,0-32,14.3-32,32s14.3,32,32,32h144c61.9,0,112-50.1,112-112,0-2.5-.1-5-.2-7.5h-.1Z"/>
</svg>